<svg width="69" height="21" viewBox="0 0 69 21" fill="none" xmlns="http://www.w3.org/2000/svg">
<rect width="69" height="21" rx="4" fill="#559F21"/>
<path d="M6.72252 15V5.2H9.88652C10.6519 5.2 11.2772 5.326 11.7625 5.578C12.2479 5.83 12.6072 6.17533 12.8405 6.614C13.0739 7.05267 13.1905 7.538 13.1905 8.07C13.1905 8.686 13.0225 9.24133 12.6865 9.736C12.3599 10.2307 11.8465 10.5807 11.1465 10.786L13.2885 15H11.9025L9.91452 10.954H9.83052H7.89852V15H6.72252ZM7.89852 10.03H9.80252C10.5585 10.03 11.1092 9.848 11.4545 9.484C11.7999 9.12 11.9725 8.65333 11.9725 8.084C11.9725 7.50533 11.7999 7.048 11.4545 6.712C11.1185 6.36667 10.5632 6.194 9.78852 6.194H7.89852V10.03ZM17.6495 15.168C16.9869 15.168 16.3989 15.0187 15.8855 14.72C15.3722 14.412 14.9662 13.9873 14.6675 13.446C14.3782 12.9047 14.2335 12.2653 14.2335 11.528C14.2335 10.8 14.3782 10.1653 14.6675 9.624C14.9569 9.07333 15.3582 8.64867 15.8715 8.35C16.3942 8.042 16.9962 7.888 17.6775 7.888C18.3495 7.888 18.9282 8.042 19.4135 8.35C19.9082 8.64867 20.2862 9.04533 20.5475 9.54C20.8089 10.0347 20.9395 10.5667 20.9395 11.136C20.9395 11.2387 20.9349 11.3413 20.9255 11.444C20.9255 11.5467 20.9255 11.6633 20.9255 11.794H15.3955C15.4235 12.326 15.5449 12.7693 15.7595 13.124C15.9835 13.4693 16.2589 13.7307 16.5855 13.908C16.9215 14.0853 17.2762 14.174 17.6495 14.174C18.1349 14.174 18.5409 14.062 18.8675 13.838C19.1942 13.614 19.4322 13.3107 19.5815 12.928H20.7435C20.5569 13.572 20.1975 14.1087 19.6655 14.538C19.1429 14.958 18.4709 15.168 17.6495 15.168ZM17.6495 8.882C17.0895 8.882 16.5902 9.05467 16.1515 9.4C15.7222 9.736 15.4749 10.2307 15.4095 10.884H19.7775C19.7495 10.2587 19.5349 9.76867 19.1335 9.414C18.7322 9.05933 18.2375 8.882 17.6495 8.882ZM25.1582 15.168C24.3276 15.168 23.6369 14.958 23.0862 14.538C22.5356 14.118 22.2136 13.5487 22.1202 12.83H23.3242C23.3989 13.194 23.5902 13.5113 23.8982 13.782C24.2156 14.0433 24.6402 14.174 25.1722 14.174C25.6669 14.174 26.0309 14.0713 26.2642 13.866C26.4976 13.6513 26.6142 13.3993 26.6142 13.11C26.6142 12.69 26.4602 12.41 26.1522 12.27C25.8536 12.13 25.4289 12.004 24.8782 11.892C24.5049 11.8173 24.1316 11.71 23.7582 11.57C23.3849 11.43 23.0722 11.234 22.8202 10.982C22.5682 10.7207 22.4422 10.38 22.4422 9.96C22.4422 9.35333 22.6662 8.85867 23.1142 8.476C23.5716 8.084 24.1876 7.888 24.9622 7.888C25.6996 7.888 26.3016 8.07467 26.7682 8.448C27.2442 8.812 27.5196 9.33467 27.5942 10.016H26.4322C26.3856 9.66133 26.2316 9.386 25.9702 9.19C25.7182 8.98467 25.3776 8.882 24.9482 8.882C24.5282 8.882 24.2016 8.97067 23.9682 9.148C23.7442 9.32533 23.6322 9.55867 23.6322 9.848C23.6322 10.128 23.7769 10.3473 24.0662 10.506C24.3649 10.6647 24.7662 10.8 25.2702 10.912C25.6996 11.0053 26.1056 11.122 26.4882 11.262C26.8802 11.3927 27.1976 11.5933 27.4402 11.864C27.6922 12.1253 27.8182 12.508 27.8182 13.012C27.8276 13.6373 27.5896 14.1553 27.1042 14.566C26.6282 14.9673 25.9796 15.168 25.1582 15.168ZM31.9278 15C31.2931 15 30.7938 14.846 30.4298 14.538C30.0658 14.23 29.8838 13.6747 29.8838 12.872V9.05H28.6798V8.056H29.8838L30.0378 6.39H31.0598V8.056H33.1038V9.05H31.0598V12.872C31.0598 13.3107 31.1484 13.6093 31.3258 13.768C31.5031 13.9173 31.8158 13.992 32.2638 13.992H32.9918V15H31.9278ZM37.5704 15.168C36.9171 15.168 36.3291 15.0187 35.8064 14.72C35.2838 14.4213 34.8684 14.0013 34.5604 13.46C34.2618 12.9093 34.1124 12.2653 34.1124 11.528C34.1124 10.7907 34.2664 10.1513 34.5744 9.61C34.8824 9.05933 35.2978 8.63467 35.8204 8.336C36.3524 8.03733 36.9451 7.888 37.5984 7.888C38.2518 7.888 38.8398 8.03733 39.3624 8.336C39.8851 8.63467 40.2958 9.05933 40.5944 9.61C40.9024 10.1513 41.0564 10.7907 41.0564 11.528C41.0564 12.2653 40.9024 12.9093 40.5944 13.46C40.2864 14.0013 39.8664 14.4213 39.3344 14.72C38.8118 15.0187 38.2238 15.168 37.5704 15.168ZM37.5704 14.16C37.9718 14.16 38.3451 14.062 38.6904 13.866C39.0358 13.67 39.3158 13.376 39.5304 12.984C39.7451 12.592 39.8524 12.1067 39.8524 11.528C39.8524 10.9493 39.7451 10.464 39.5304 10.072C39.3251 9.68 39.0498 9.386 38.7044 9.19C38.3591 8.994 37.9904 8.896 37.5984 8.896C37.1971 8.896 36.8238 8.994 36.4784 9.19C36.1331 9.386 35.8531 9.68 35.6384 10.072C35.4238 10.464 35.3164 10.9493 35.3164 11.528C35.3164 12.1067 35.4238 12.592 35.6384 12.984C35.8531 13.376 36.1284 13.67 36.4644 13.866C36.8098 14.062 37.1784 14.16 37.5704 14.16ZM42.6916 15V8.056H43.7556L43.8536 9.386C44.0683 8.92867 44.3949 8.56467 44.8336 8.294C45.2723 8.02333 45.8136 7.888 46.4576 7.888V9.12H46.1356C45.7249 9.12 45.3469 9.19467 45.0016 9.344C44.6563 9.484 44.3809 9.72667 44.1756 10.072C43.9703 10.4173 43.8676 10.8933 43.8676 11.5V15H42.6916ZM50.6398 15.168C49.9771 15.168 49.3891 15.0187 48.8758 14.72C48.3624 14.412 47.9564 13.9873 47.6578 13.446C47.3684 12.9047 47.2238 12.2653 47.2238 11.528C47.2238 10.8 47.3684 10.1653 47.6578 9.624C47.9471 9.07333 48.3484 8.64867 48.8618 8.35C49.3844 8.042 49.9864 7.888 50.6678 7.888C51.3398 7.888 51.9184 8.042 52.4038 8.35C52.8984 8.64867 53.2764 9.04533 53.5378 9.54C53.7991 10.0347 53.9298 10.5667 53.9298 11.136C53.9298 11.2387 53.9251 11.3413 53.9158 11.444C53.9158 11.5467 53.9158 11.6633 53.9158 11.794H48.3858C48.4138 12.326 48.5351 12.7693 48.7498 13.124C48.9738 13.4693 49.2491 13.7307 49.5758 13.908C49.9118 14.0853 50.2664 14.174 50.6398 14.174C51.1251 14.174 51.5311 14.062 51.8578 13.838C52.1844 13.614 52.4224 13.3107 52.5718 12.928H53.7338C53.5471 13.572 53.1878 14.1087 52.6558 14.538C52.1331 14.958 51.4611 15.168 50.6398 15.168ZM50.6398 8.882C50.0798 8.882 49.5804 9.05467 49.1418 9.4C48.7124 9.736 48.4651 10.2307 48.3998 10.884H52.7678C52.7398 10.2587 52.5251 9.76867 52.1238 9.414C51.7224 9.05933 51.2278 8.882 50.6398 8.882ZM58.6385 15.168C57.9478 15.168 57.3411 15.0093 56.8185 14.692C56.3051 14.3747 55.9038 13.9407 55.6145 13.39C55.3345 12.8393 55.1945 12.214 55.1945 11.514C55.1945 10.814 55.3391 10.1933 55.6285 9.652C55.9178 9.10133 56.3191 8.672 56.8325 8.364C57.3458 8.04667 57.9525 7.888 58.6525 7.888C59.2218 7.888 59.7258 8.00467 60.1645 8.238C60.6031 8.47133 60.9438 8.798 61.1865 9.218V4.92H62.3625V15H61.2985L61.1865 13.852C60.9625 14.188 60.6405 14.4913 60.2205 14.762C59.8005 15.0327 59.2731 15.168 58.6385 15.168ZM58.7645 14.146C59.2311 14.146 59.6418 14.0387 59.9965 13.824C60.3605 13.6 60.6405 13.292 60.8365 12.9C61.0418 12.508 61.1445 12.0507 61.1445 11.528C61.1445 11.0053 61.0418 10.548 60.8365 10.156C60.6405 9.764 60.3605 9.46067 59.9965 9.246C59.6418 9.022 59.2311 8.91 58.7645 8.91C58.3071 8.91 57.8965 9.022 57.5325 9.246C57.1778 9.46067 56.8978 9.764 56.6925 10.156C56.4965 10.548 56.3985 11.0053 56.3985 11.528C56.3985 12.0507 56.4965 12.508 56.6925 12.9C56.8978 13.292 57.1778 13.6 57.5325 13.824C57.8965 14.0387 58.3071 14.146 58.7645 14.146Z" fill="white"/>
</svg>
