<svg width="173" height="30" viewBox="0 0 173 30" fill="none" xmlns="http://www.w3.org/2000/svg">
<path d="M12.6596 0H0V6L11.6788 6C17.8153 6 19.8766 10.7857 20.1711 12.5714C20.8919 11.3483 21.3376 9.92986 21.3376 8.42001C21.3376 3.76977 17.4523 0 12.6596 0Z" fill="black"/>
<path d="M0 12H10.6706C13.5272 12 16.1068 13.1505 17.944 15C16.1068 16.8495 13.5272 18 10.6706 18H0V12Z" fill="black"/>
<path d="M0 30H12.6596C17.4523 30 21.3376 26.2302 21.3376 21.58C21.3376 20.0701 20.8919 18.6517 20.1711 17.4286C19.8766 19.2143 17.8153 24 11.6788 24H0V30Z" fill="black"/>
<path d="M73.2164 21.0148C73.9193 21.3859 74.7741 21.5714 75.7809 21.5714C76.5598 21.5714 77.2342 21.4577 77.804 21.2303C78.3803 21.0028 78.8647 20.6976 79.2573 20.3145C79.6499 19.9315 79.9601 19.5065 80.1881 19.0397L78.6684 18.501C78.3644 18.9738 77.9908 19.3599 77.5476 19.6591C77.1043 19.9524 76.5155 20.0991 75.7809 20.0991C75.1161 20.0991 74.543 19.9584 74.0618 19.6771C73.5869 19.3898 73.1943 19.0067 72.884 18.5279C72.5737 18.0431 72.3458 17.5014 72.2001 16.9029C72.0545 16.3044 71.9817 15.6939 71.9817 15.0714C71.9817 14.4968 72.045 13.9133 72.1716 13.3207C72.3046 12.7282 72.5167 12.1835 72.808 11.6868C73.1056 11.19 73.4982 10.789 73.9858 10.4837C74.4734 10.1785 75.0717 10.0258 75.7809 10.0258C76.2685 10.0258 76.6833 10.0917 77.0252 10.2234C77.3671 10.355 77.6616 10.5376 77.9085 10.771C78.1555 10.9985 78.3834 11.2588 78.5924 11.5521L80.0741 10.8339C79.8778 10.4568 79.5992 10.0977 79.2383 9.75651C78.8837 9.40937 78.4214 9.12507 77.8515 8.90361C77.288 8.68216 76.5978 8.57143 75.7809 8.57143C74.7931 8.57143 73.9478 8.75996 73.2449 9.13704C72.5484 9.50812 71.9817 10.0079 71.5447 10.6363C71.1078 11.2648 70.7849 11.9651 70.5759 12.7372C70.3733 13.5033 70.272 14.2814 70.272 15.0714C70.272 15.8675 70.3701 16.6515 70.5664 17.4236C70.7691 18.1957 71.0857 18.896 71.5163 19.5245C71.9468 20.1469 72.5136 20.6437 73.2164 21.0148Z" fill="black"/>
<path fill-rule="evenodd" clip-rule="evenodd" d="M35.4834 8.7869V21.356H40.4984C41.309 21.356 41.9897 21.2512 42.5406 21.0417C43.0978 20.8263 43.541 20.542 43.8703 20.1888C44.2059 19.8357 44.4465 19.4467 44.5922 19.0217C44.7378 18.5968 44.8106 18.1718 44.8106 17.7468C44.8106 17.268 44.7156 16.8281 44.5257 16.4271C44.3357 16.0261 44.0571 15.6819 43.6898 15.3946C43.3289 15.1014 42.892 14.8799 42.3791 14.7303C42.9996 14.4789 43.4809 14.1228 43.8228 13.6619C44.1647 13.201 44.3357 12.6833 44.3357 12.1087C44.3357 11.5521 44.2091 11.0194 43.9558 10.5107C43.7025 10.0019 43.2751 9.58892 42.6735 9.2717C42.072 8.9485 41.2456 8.7869 40.1945 8.7869H35.4834ZM40.6884 19.9195H37.1361V15.5383H40.0805C40.91 15.5383 41.5464 15.649 41.9897 15.8705C42.4392 16.0859 42.7495 16.3702 42.9205 16.7234C43.0914 17.0765 43.1769 17.4536 43.1769 17.8546C43.1769 18.1898 43.1041 18.516 42.9585 18.8332C42.8192 19.1504 42.569 19.4107 42.2081 19.6142C41.8472 19.8177 41.3406 19.9195 40.6884 19.9195ZM39.8716 14.1198H37.1361V10.2054H40.2895C40.9544 10.2054 41.4609 10.3012 41.8092 10.4927C42.1575 10.6842 42.3918 10.9296 42.5121 11.2289C42.6387 11.5222 42.702 11.8214 42.702 12.1267C42.702 12.7252 42.4646 13.207 41.9897 13.5721C41.5211 13.9372 40.8151 14.1198 39.8716 14.1198Z" fill="black"/>
<path d="M47.857 8.7869V21.356H56.0444V19.8477H49.5097V8.7869H47.857Z" fill="black"/>
<path fill-rule="evenodd" clip-rule="evenodd" d="M57.9094 21.356L62.6205 8.7869H64.1592L68.8703 21.356H67.1796L66.0398 18.2855H60.7588L59.638 21.356H57.9094ZM61.2527 16.9029H65.5269L63.8172 12.2524C63.7729 12.1327 63.7222 11.995 63.6653 11.8394C63.6146 11.6778 63.5639 11.5222 63.5133 11.3725C63.4626 11.2169 63.4246 11.0852 63.3993 10.9775C63.3676 11.0852 63.3265 11.2169 63.2758 11.3725C63.2315 11.5222 63.1809 11.6778 63.1239 11.8394C63.0732 11.995 63.0257 12.1327 62.9814 12.2524L61.2527 16.9029Z" fill="black"/>
<path d="M82.9743 8.7869H84.627V14.9457L89.813 8.7869H91.6747L88.0084 13.1322L92.7574 21.356H90.8388L86.8876 14.443L84.627 17.0645V21.356H82.9743V8.7869Z" fill="black"/>
<path d="M103.022 13.5899L106.633 21.5714L110.205 13.626C110.3 13.4093 110.402 13.1685 110.509 12.9037C110.623 12.6388 110.718 12.4041 110.794 12.1994C110.788 12.362 110.779 12.5817 110.766 12.8585C110.76 13.1294 110.756 13.3732 110.756 13.5899V21.3547H112.41V8.71429H110.833L106.975 17.2195C106.911 17.364 106.851 17.5084 106.794 17.6529C106.737 17.7913 106.683 17.9298 106.633 18.0682L106.462 17.6348C106.405 17.4904 106.348 17.3519 106.291 17.2195L102.414 8.71429H100.855V21.3547H102.509V13.5899C102.509 13.3732 102.502 13.1324 102.49 12.8676C102.483 12.5967 102.471 12.38 102.452 12.2175C102.528 12.4222 102.616 12.6509 102.718 12.9037C102.825 13.1505 102.927 13.3792 103.022 13.5899Z" fill="black"/>
<path fill-rule="evenodd" clip-rule="evenodd" d="M119.578 8.71429L114.865 21.3547H116.594L117.715 18.2669H122.999L124.139 21.3547H125.83L121.117 8.71429H119.578ZM122.485 16.8764H118.21L119.939 12.1994C119.983 12.0791 120.031 11.9406 120.081 11.7841C120.138 11.6216 120.189 11.4651 120.233 11.3146C120.284 11.1581 120.325 11.0257 120.357 10.9173C120.382 11.0257 120.42 11.1581 120.471 11.3146C120.522 11.4651 120.572 11.6216 120.623 11.7841C120.68 11.9406 120.731 12.0791 120.775 12.1994L122.485 16.8764Z" fill="black"/>
<path fill-rule="evenodd" clip-rule="evenodd" d="M128.285 21.3547V8.71429H133.53C134.595 8.71429 135.431 8.88884 136.039 9.23796C136.653 9.58708 137.087 10.0385 137.341 10.5923C137.6 11.14 137.73 11.7119 137.73 12.3078C137.73 12.8074 137.626 13.301 137.417 13.7885C137.214 14.2701 136.885 14.6944 136.428 15.0616C135.972 15.4288 135.374 15.6846 134.633 15.8291L137.483 21.3547H135.621L132.884 15.9374H129.939V21.3547H128.285ZM129.939 14.4747H133.568C134.189 14.4747 134.68 14.3694 135.041 14.1587C135.409 13.948 135.668 13.6802 135.82 13.3551C135.979 13.0301 136.058 12.693 136.058 12.3439C136.058 12.0309 135.985 11.7089 135.839 11.3778C135.7 11.0407 135.45 10.7578 135.089 10.5291C134.728 10.2943 134.221 10.177 133.568 10.177H129.939V14.4747Z" fill="black"/>
<path d="M140.924 8.71429V21.3547H142.577V17.0389L144.839 14.4025L148.791 21.3547H150.711L145.96 13.0843L149.628 8.71429H147.765L142.577 14.9081V8.71429H140.924Z" fill="black"/>
<path d="M153.432 21.3547V8.71429H161.338V10.195H155.086V14.0774H159.21V15.5582H155.086V19.8559H161.756V21.3547H153.432Z" fill="black"/>
<path d="M167.641 10.2131V21.3547H169.294V10.2131H173V8.71429H163.935V10.2131H167.641Z" fill="black"/>
</svg>
