<svg width="31" height="23" viewBox="0 0 31 23" fill="none" xmlns="http://www.w3.org/2000/svg">
<path d="M0.5 3.75C0.5 2.75544 0.895088 1.80161 1.59835 1.09835C2.30161 0.395088 3.25544 0 4.25 0H26.75C27.7446 0 28.6984 0.395088 29.4016 1.09835C30.1049 1.80161 30.5 2.75544 30.5 3.75V18.75C30.5 19.7446 30.1049 20.6984 29.4016 21.4016C28.6984 22.1049 27.7446 22.5 26.75 22.5H4.25C3.25544 22.5 2.30161 22.1049 1.59835 21.4016C0.895088 20.6984 0.5 19.7446 0.5 18.75V3.75ZM4.25 1.875C3.75272 1.875 3.27581 2.07254 2.92417 2.42417C2.57254 2.77581 2.375 3.25272 2.375 3.75V5.625H28.625V3.75C28.625 3.25272 28.4275 2.77581 28.0758 2.42417C27.7242 2.07254 27.2473 1.875 26.75 1.875H4.25ZM28.625 9.375H2.375V18.75C2.375 19.2473 2.57254 19.7242 2.92417 20.0758C3.27581 20.4275 3.75272 20.625 4.25 20.625H26.75C27.2473 20.625 27.7242 20.4275 28.0758 20.0758C28.4275 19.7242 28.625 19.2473 28.625 18.75V9.375Z" fill="#00031A"/>
<path d="M4.25 15C4.25 14.5027 4.44754 14.0258 4.79917 13.6742C5.15081 13.3225 5.62772 13.125 6.125 13.125H8C8.49728 13.125 8.97419 13.3225 9.32582 13.6742C9.67746 14.0258 9.875 14.5027 9.875 15V16.875C9.875 17.3723 9.67746 17.8492 9.32582 18.2008C8.97419 18.5525 8.49728 18.75 8 18.75H6.125C5.62772 18.75 5.15081 18.5525 4.79917 18.2008C4.44754 17.8492 4.25 17.3723 4.25 16.875V15Z" fill="#00031A"/>
</svg>
